<svg id="svg" version="1.1" xmlns="http://www.w3.org/2000/svg" xmlns:xlink="http://www.w3.org/1999/xlink" width="400" height="400" viewBox="0, 0, 400,400"><g id="svgg"><path id="path0" d="M203.290 55.547 C 199.688 60.722,198.235 63.013,198.340 63.354 C 198.394 63.529,198.240 63.672,197.999 63.672 C 197.696 63.672,197.711 63.853,198.047 64.258 C 198.452 64.746,198.400 64.844,197.737 64.844 C 196.777 64.844,193.942 68.504,194.369 69.193 C 194.535 69.463,194.484 69.548,194.244 69.400 C 193.717 69.074,192.459 70.976,192.818 71.556 C 192.973 71.808,192.915 71.888,192.681 71.743 C 192.182 71.435,190.888 73.305,191.224 73.849 C 191.356 74.063,191.302 74.190,191.103 74.131 C 190.412 73.926,178.020 91.719,178.215 92.635 C 178.273 92.907,178.102 93.137,177.836 93.146 C 177.288 93.166,174.554 97.044,174.825 97.416 C 174.921 97.548,174.884 97.569,174.742 97.463 C 174.327 97.153,173.365 98.785,173.671 99.280 C 173.832 99.541,173.778 99.625,173.542 99.479 C 172.986 99.135,172.040 100.321,172.502 100.783 C 172.720 101.001,174.236 100.766,176.372 100.182 C 188.661 96.822,195.085 95.607,195.409 96.580 C 195.691 97.423,193.056 102.657,190.847 105.644 C 189.680 107.224,188.844 108.649,188.991 108.813 C 189.138 108.976,189.062 108.998,188.822 108.861 C 188.283 108.553,186.996 109.901,187.401 110.348 C 187.563 110.526,187.499 110.560,187.259 110.423 C 186.731 110.122,185.423 111.465,185.839 111.881 C 186.001 112.042,185.884 112.116,185.579 112.044 C 185.274 111.973,184.813 112.321,184.554 112.818 C 184.295 113.315,183.929 113.754,183.741 113.794 C 183.552 113.834,183.442 113.999,183.496 114.160 C 183.550 114.321,183.374 114.409,183.105 114.355 C 182.837 114.302,182.661 114.478,182.715 114.746 C 182.769 115.015,182.653 115.190,182.458 115.137 C 181.827 114.963,178.086 117.981,178.368 118.437 C 178.534 118.705,178.458 118.760,178.168 118.581 C 177.584 118.220,176.481 119.084,176.822 119.636 C 176.965 119.866,176.886 119.926,176.641 119.775 C 176.261 119.540,172.266 122.047,172.266 122.521 C 172.266 122.621,172.469 122.577,172.717 122.424 C 172.998 122.250,173.061 122.317,172.885 122.602 C 172.729 122.854,172.453 122.967,172.269 122.854 C 171.802 122.565,166.971 125.979,167.090 126.514 C 167.144 126.756,166.863 126.953,166.467 126.953 C 165.602 126.953,164.330 128.250,164.745 128.708 C 164.907 128.886,164.815 128.903,164.542 128.745 C 163.948 128.403,160.042 131.531,160.380 132.078 C 160.504 132.278,160.429 132.393,160.213 132.334 C 159.997 132.275,159.532 132.578,159.178 133.008 C 158.825 133.438,158.664 133.525,158.821 133.203 C 158.977 132.881,158.557 133.127,157.887 133.751 C 157.217 134.375,156.763 135.038,156.879 135.226 C 156.995 135.413,156.857 135.518,156.572 135.459 C 156.287 135.400,156.099 135.571,156.152 135.840 C 156.206 136.108,156.030 136.284,155.762 136.230 C 155.476 136.173,155.293 136.500,155.321 137.018 C 155.355 137.658,155.240 137.797,154.905 137.518 C 154.437 137.130,151.250 140.458,151.465 141.110 C 151.519 141.273,151.343 141.362,151.074 141.309 C 150.806 141.255,150.578 141.563,150.568 141.992 C 150.558 142.422,150.354 142.735,150.115 142.688 C 148.831 142.434,142.544 153.656,140.479 159.886 C 137.847 167.825,137.221 178.959,139.025 185.728 C 140.084 189.700,143.943 197.825,144.582 197.429 C 144.867 197.254,144.939 197.313,144.771 197.585 C 144.277 198.384,147.407 202.619,148.341 202.415 C 148.679 202.341,148.797 202.469,148.634 202.733 C 148.290 203.288,149.574 204.755,150.113 204.423 C 150.332 204.287,150.398 204.359,150.260 204.583 C 150.011 204.986,151.077 206.145,151.525 205.957 C 151.653 205.903,151.758 206.049,151.758 206.281 C 151.758 206.851,153.154 207.841,153.583 207.576 C 153.771 207.459,153.877 207.575,153.818 207.834 C 153.689 208.399,159.078 212.136,160.137 212.215 C 160.548 212.246,160.852 212.424,160.813 212.611 C 160.673 213.282,177.102 221.290,177.770 220.877 C 177.965 220.756,178.125 220.823,178.125 221.026 C 178.125 221.229,178.784 221.701,179.590 222.076 C 180.396 222.450,181.332 222.997,181.670 223.291 C 182.008 223.585,182.736 223.863,183.287 223.908 C 184.565 224.014,184.284 224.915,182.867 225.253 C 182.300 225.388,181.660 225.627,181.445 225.785 C 178.326 228.072,155.052 228.797,147.922 226.828 C 145.812 226.246,143.895 225.887,143.662 226.031 C 143.420 226.181,143.350 226.112,143.500 225.870 C 143.647 225.632,143.375 225.330,142.877 225.179 C 141.018 224.616,134.853 221.323,132.422 219.595 C 131.025 218.602,129.854 217.874,129.818 217.977 C 129.782 218.080,129.606 218.004,129.427 217.808 C 129.235 217.598,129.341 217.578,129.688 217.760 C 130.010 217.929,129.575 217.473,128.722 216.748 C 127.869 216.023,127.021 215.478,126.837 215.537 C 126.654 215.596,126.598 215.493,126.712 215.309 C 126.826 215.124,126.126 214.197,125.155 213.248 C 124.185 212.300,122.679 210.603,121.808 209.477 C 120.937 208.351,120.080 207.519,119.905 207.628 C 119.729 207.736,119.458 207.619,119.303 207.368 C 119.113 207.061,119.190 207.016,119.537 207.230 C 119.918 207.465,119.985 207.370,119.793 206.868 C 119.649 206.493,119.531 206.102,119.531 206.000 C 119.531 205.897,119.351 205.925,119.131 206.061 C 118.911 206.197,118.778 206.163,118.836 205.986 C 119.024 205.415,115.590 199.194,115.215 199.426 C 115.016 199.549,114.960 199.371,115.091 199.029 C 115.222 198.687,115.060 197.668,114.730 196.763 C 110.057 183.929,113.475 164.069,122.956 148.967 C 124.054 147.218,124.876 145.680,124.781 145.549 C 124.687 145.419,124.723 145.397,124.863 145.501 C 125.420 145.915,128.998 140.230,128.533 139.669 C 128.219 139.291,128.211 139.055,128.506 138.873 C 128.737 138.730,128.900 138.759,128.870 138.936 C 128.720 139.798,128.975 139.903,129.678 139.266 C 130.103 138.882,130.364 138.427,130.258 138.256 C 130.152 138.085,130.271 137.817,130.523 137.662 C 130.808 137.485,130.875 137.549,130.701 137.830 C 130.077 138.841,130.872 138.182,132.008 136.748 C 132.676 135.904,133.052 135.109,132.844 134.980 C 132.378 134.692,126.859 139.376,127.137 139.825 C 127.246 140.001,127.034 140.122,126.665 140.093 C 126.297 140.063,125.991 140.259,125.986 140.527 C 125.981 140.796,125.836 141.005,125.664 140.993 C 125.193 140.958,122.446 143.467,122.559 143.827 C 122.612 144.000,122.437 144.097,122.168 144.043 C 121.899 143.989,121.728 144.178,121.787 144.463 C 121.846 144.747,121.740 144.884,121.551 144.768 C 121.362 144.651,120.786 145.032,120.272 145.615 C 119.572 146.406,119.541 146.502,120.148 145.993 C 120.595 145.619,121.102 145.313,121.275 145.313 C 121.448 145.313,121.133 145.672,120.574 146.111 C 120.016 146.551,119.448 146.885,119.313 146.854 C 118.829 146.745,116.830 148.956,117.066 149.339 C 117.199 149.554,117.129 149.619,116.909 149.484 C 116.543 149.257,114.914 150.666,115.137 151.018 C 115.190 151.102,115.103 151.184,114.941 151.200 C 114.332 151.258,113.310 152.465,113.546 152.847 C 113.682 153.066,113.610 153.133,113.386 152.994 C 112.939 152.718,112.000 153.628,112.308 154.040 C 112.414 154.181,112.384 154.211,112.243 154.105 C 111.732 153.723,111.023 154.735,111.235 155.544 C 111.386 156.125,111.311 156.286,110.982 156.082 C 110.324 155.675,109.372 156.569,109.661 157.323 C 109.838 157.784,109.734 157.884,109.263 157.703 C 108.555 157.432,103.379 162.745,103.757 163.355 C 103.871 163.540,103.732 163.643,103.447 163.584 C 103.162 163.525,102.974 163.696,103.027 163.965 C 103.081 164.233,102.977 164.409,102.797 164.355 C 102.477 164.260,98.448 168.718,98.441 169.175 C 98.439 169.301,97.724 170.154,96.853 171.070 C 95.326 172.675,87.798 182.600,85.202 186.429 C 84.488 187.483,84.063 188.498,84.221 188.773 C 84.375 189.040,84.361 189.132,84.190 188.978 C 83.240 188.120,70.738 210.537,70.566 213.409 C 70.534 213.947,70.435 214.315,70.346 214.226 C 70.048 213.929,67.967 219.271,66.224 224.805 C 60.296 243.627,59.360 260.446,63.861 267.249 C 66.523 271.270,70.171 271.876,80.273 269.973 C 83.711 269.326,91.797 267.818,98.242 266.622 C 104.688 265.426,112.686 263.928,116.016 263.293 C 119.346 262.658,123.652 261.862,125.586 261.524 C 127.520 261.187,129.893 260.751,130.859 260.557 C 131.826 260.362,134.199 259.919,136.133 259.571 C 138.066 259.224,142.725 258.340,146.484 257.607 C 152.671 256.401,167.766 253.541,181.641 250.946 C 197.934 247.899,201.331 247.050,205.265 245.048 C 210.425 242.420,219.475 235.967,219.229 235.090 C 219.170 234.880,219.270 234.800,219.453 234.912 C 219.949 235.219,223.875 231.642,223.575 231.157 C 223.419 230.904,223.502 230.853,223.785 231.028 C 224.317 231.357,225.486 230.549,225.185 230.061 C 225.076 229.885,225.193 229.614,225.445 229.459 C 225.757 229.266,225.797 229.350,225.571 229.725 C 225.290 230.192,225.339 230.194,225.902 229.737 C 227.100 228.765,224.615 226.297,221.824 225.688 C 221.566 225.632,221.066 225.313,220.714 224.979 C 219.532 223.857,214.842 221.440,214.389 221.719 C 214.126 221.882,214.048 221.824,214.199 221.579 C 214.344 221.345,213.731 220.748,212.795 220.214 C 211.881 219.692,207.441 217.152,202.930 214.570 C 193.033 208.905,191.418 208.047,190.511 207.974 C 190.126 207.943,189.599 207.643,189.339 207.307 C 188.577 206.321,178.172 200.706,177.675 201.013 C 177.411 201.177,177.328 201.122,177.476 200.883 C 177.766 200.414,176.678 199.882,176.127 200.223 C 175.926 200.347,175.810 200.267,175.869 200.045 C 175.978 199.636,170.145 196.094,169.363 196.094 C 169.129 196.094,168.714 195.736,168.441 195.298 C 168.168 194.861,167.646 194.553,167.282 194.615 C 166.917 194.676,166.614 194.551,166.607 194.336 C 166.601 194.121,165.669 193.081,164.536 192.026 C 155.945 184.016,154.183 172.720,159.770 161.477 C 160.871 159.262,161.730 157.399,161.678 157.338 C 161.626 157.277,162.097 156.688,162.725 156.029 C 164.428 154.243,166.223 151.802,166.102 151.436 C 166.044 151.259,166.157 151.213,166.354 151.335 C 166.738 151.572,168.206 149.627,168.046 149.092 C 167.993 148.915,168.101 148.864,168.286 148.978 C 168.759 149.271,171.567 146.313,171.199 145.909 C 171.034 145.727,171.105 145.696,171.357 145.841 C 171.902 146.153,175.645 143.021,175.456 142.411 C 175.384 142.181,175.451 142.118,175.605 142.271 C 176.000 142.667,177.415 141.838,177.130 141.377 C 177.001 141.168,177.040 141.042,177.217 141.098 C 177.923 141.320,187.517 134.250,187.745 133.339 C 187.872 132.835,188.142 132.422,188.347 132.422 C 188.551 132.422,188.609 132.598,188.477 132.813 C 187.355 134.628,194.180 129.944,197.900 126.346 C 200.321 124.004,200.711 123.448,200.502 122.635 C 200.284 121.790,200.328 121.740,200.889 122.199 C 202.582 123.588,214.660 102.045,213.412 99.862 C 213.271 99.615,213.302 99.546,213.480 99.708 C 213.658 99.869,214.134 99.703,214.538 99.338 C 215.380 98.575,214.352 98.257,224.805 102.516 C 228.242 103.917,231.284 104.981,231.563 104.880 C 231.843 104.779,231.980 104.845,231.868 105.025 C 231.646 105.386,233.290 106.250,234.198 106.250 C 235.181 106.250,234.830 105.085,232.585 100.899 C 230.642 97.278,230.333 96.889,229.753 97.342 C 229.176 97.793,229.160 97.777,229.613 97.198 C 230.225 96.416,230.430 96.854,223.429 83.984 C 209.290 57.995,206.837 53.590,206.587 53.744 C 206.450 53.829,206.362 53.611,206.392 53.260 C 206.523 51.704,205.377 52.549,203.290 55.547 M325.781 128.790 C 325.029 128.877,322.041 129.385,319.141 129.921 C 316.240 130.456,310.615 131.495,306.641 132.228 C 302.666 132.962,297.041 134.019,294.141 134.577 C 291.240 135.134,287.858 135.775,286.624 136.001 C 285.390 136.226,284.461 136.543,284.561 136.704 C 284.661 136.865,284.346 136.921,283.861 136.828 C 283.377 136.736,280.174 137.194,276.744 137.848 C 273.314 138.501,264.004 140.279,256.055 141.798 C 248.105 143.318,239.316 144.979,236.523 145.490 C 207.843 150.735,196.040 153.542,196.382 155.035 C 196.433 155.258,196.257 155.359,195.991 155.259 C 195.396 155.034,192.969 156.471,192.969 157.049 C 192.969 157.279,192.819 157.375,192.635 157.262 C 192.167 156.972,188.844 159.144,188.539 159.939 C 188.400 160.301,188.106 160.485,187.886 160.349 C 187.367 160.028,183.518 162.843,183.816 163.325 C 183.941 163.527,183.810 163.643,183.525 163.584 C 183.241 163.525,183.045 163.676,183.090 163.919 C 183.135 164.162,182.872 164.338,182.504 164.310 C 182.098 164.278,181.887 164.488,181.966 164.844 C 182.038 165.166,181.969 165.302,181.812 165.146 C 181.474 164.807,178.663 167.190,178.818 167.685 C 178.877 167.873,178.773 167.933,178.587 167.818 C 178.401 167.703,177.658 168.219,176.935 168.964 C 175.423 170.524,175.527 170.747,178.516 172.330 C 179.482 172.842,180.749 173.579,181.330 173.969 C 181.912 174.358,182.598 174.547,182.856 174.387 C 183.136 174.214,183.222 174.263,183.069 174.511 C 182.919 174.754,184.948 176.130,187.989 177.848 C 190.835 179.456,195.889 182.346,199.219 184.270 C 212.079 191.701,229.864 200.959,230.510 200.560 C 230.713 200.435,230.830 200.504,230.771 200.713 C 230.662 201.100,236.593 205.225,237.305 205.256 C 237.520 205.266,237.703 205.537,237.713 205.859 C 237.723 206.182,237.987 206.387,238.299 206.315 C 238.612 206.243,238.737 206.315,238.578 206.474 C 237.988 207.064,239.099 207.820,239.914 207.384 C 240.610 207.012,240.642 207.050,240.250 207.783 C 239.813 208.600,239.838 208.651,240.717 208.740 C 240.983 208.767,241.266 209.141,241.345 209.570 C 241.545 210.644,242.193 211.371,242.683 211.068 C 242.906 210.930,242.975 211.002,242.836 211.228 C 242.696 211.454,243.103 212.755,243.739 214.120 C 247.880 222.994,246.241 233.396,239.133 243.359 C 238.136 244.756,237.351 245.986,237.387 246.094 C 237.470 246.340,235.882 248.047,235.569 248.047 C 235.083 248.047,230.279 252.795,230.381 253.175 C 230.440 253.394,230.320 253.470,230.115 253.343 C 229.909 253.216,229.509 253.443,229.226 253.847 C 228.943 254.252,228.535 254.650,228.320 254.733 C 228.105 254.815,227.988 255.059,228.060 255.273 C 228.132 255.488,228.064 255.538,227.911 255.385 C 227.546 255.020,225.977 256.124,225.977 256.745 C 225.977 257.009,225.713 257.226,225.391 257.226 C 225.068 257.226,223.750 258.034,222.461 259.020 C 221.172 260.007,219.373 261.303,218.463 261.900 C 217.554 262.497,216.922 263.167,217.059 263.389 C 217.196 263.611,217.135 263.685,216.922 263.554 C 216.507 263.297,213.672 265.059,213.672 265.574 C 213.672 265.745,213.439 265.885,213.153 265.885 C 212.368 265.885,209.056 268.278,208.350 269.355 C 208.007 269.878,207.563 270.204,207.362 270.080 C 206.883 269.784,205.804 270.688,206.088 271.148 C 206.209 271.344,206.075 271.455,205.791 271.396 C 205.506 271.337,205.322 271.522,205.381 271.806 C 205.440 272.091,205.339 272.232,205.158 272.119 C 204.396 271.649,197.449 279.427,197.933 280.210 C 198.062 280.419,197.984 280.476,197.759 280.337 C 197.341 280.078,196.094 281.655,196.094 282.443 C 196.094 282.685,195.750 283.174,195.330 283.531 C 194.099 284.576,191.576 289.702,190.011 294.336 C 188.266 299.504,187.617 300.363,185.938 299.729 C 185.054 299.395,184.763 299.398,184.754 299.741 C 184.747 299.991,184.576 299.911,184.373 299.564 C 184.170 299.217,183.077 298.539,181.943 298.057 C 180.810 297.575,177.114 295.970,173.729 294.489 C 170.345 293.008,167.401 291.797,167.186 291.797 C 166.203 291.797,167.248 294.160,172.457 303.711 C 172.926 304.570,174.157 306.855,175.192 308.789 C 176.227 310.723,178.166 314.326,179.500 316.797 C 183.975 325.085,187.616 331.946,192.768 341.797 C 195.638 347.286,195.798 347.336,198.400 343.572 C 199.521 341.951,200.349 340.625,200.241 340.625 C 200.133 340.625,200.564 340.056,201.200 339.360 C 201.835 338.664,202.267 337.863,202.159 337.582 C 202.051 337.300,202.114 337.163,202.301 337.278 C 202.675 337.509,204.818 334.477,204.818 333.716 C 204.818 333.453,204.955 333.323,205.124 333.427 C 205.450 333.628,206.472 332.035,206.333 331.543 C 206.287 331.382,206.414 331.250,206.614 331.250 C 207.237 331.250,211.397 325.036,211.097 324.552 C 210.934 324.287,210.986 324.203,211.223 324.349 C 211.747 324.673,219.247 313.769,218.893 313.197 C 218.740 312.950,218.809 312.881,219.056 313.034 C 219.456 313.281,221.696 310.469,221.955 309.393 C 222.018 309.130,222.562 308.376,223.163 307.717 C 223.764 307.058,224.166 306.285,224.056 305.998 C 223.946 305.712,224.051 305.520,224.289 305.571 C 224.938 305.711,230.227 298.040,229.786 297.599 C 229.558 297.370,227.961 297.618,225.550 298.256 C 219.154 299.947,216.171 300.740,212.988 301.592 C 211.323 302.038,209.366 302.479,208.639 302.573 L 207.318 302.743 207.534 301.130 C 207.813 299.052,209.741 295.149,211.900 292.293 C 212.835 291.056,213.500 289.867,213.378 289.651 C 213.256 289.435,213.305 289.394,213.488 289.560 C 213.919 289.952,217.228 286.710,216.915 286.203 C 216.784 285.991,216.848 285.923,217.059 286.053 C 217.531 286.345,222.359 282.499,222.083 282.051 C 221.973 281.874,222.189 281.753,222.563 281.782 C 222.939 281.812,223.194 281.605,223.135 281.319 C 223.076 281.034,223.183 280.897,223.373 281.015 C 223.563 281.132,225.106 280.215,226.801 278.976 C 228.496 277.738,230.893 276.055,232.129 275.238 C 233.383 274.408,234.262 273.570,234.119 273.339 C 233.976 273.109,234.048 273.040,234.281 273.184 C 234.937 273.589,241.521 268.470,241.139 267.852 C 241.005 267.635,241.082 267.573,241.312 267.715 C 241.856 268.052,248.122 262.156,247.790 261.619 C 247.650 261.393,247.711 261.316,247.925 261.448 C 248.139 261.581,249.216 260.597,250.318 259.262 C 253.259 255.700,254.954 253.311,254.292 253.664 C 253.973 253.835,254.081 253.651,254.533 253.257 C 257.089 251.026,260.917 243.016,262.689 236.192 C 265.465 225.505,264.882 214.234,261.147 206.350 C 259.238 202.321,256.336 197.947,255.794 198.283 C 255.528 198.447,255.455 198.385,255.612 198.131 C 255.956 197.575,253.564 194.846,253.025 195.179 C 252.799 195.319,252.726 195.252,252.863 195.030 C 253.205 194.477,249.327 190.903,248.763 191.251 C 248.506 191.410,248.423 191.355,248.568 191.120 C 248.893 190.595,247.820 189.696,247.273 190.034 C 247.043 190.176,246.904 190.088,246.963 189.839 C 247.101 189.258,240.244 185.069,239.575 185.326 C 239.298 185.432,239.114 185.329,239.165 185.098 C 239.287 184.545,220.323 175.750,219.434 175.947 C 219.058 176.031,218.750 175.939,218.750 175.745 C 218.750 175.550,218.970 175.388,219.238 175.385 C 219.507 175.382,219.307 175.162,218.794 174.897 C 217.601 174.280,217.666 173.668,218.940 173.509 C 219.487 173.440,219.861 173.264,219.771 173.118 C 219.680 172.971,219.985 172.824,220.448 172.789 C 220.910 172.755,223.311 172.345,225.781 171.878 C 242.711 168.678,257.937 171.053,269.285 178.662 C 270.759 179.651,272.147 180.347,272.371 180.208 C 272.606 180.063,272.660 180.147,272.498 180.408 C 272.331 180.678,272.473 180.859,272.852 180.859 C 273.199 180.859,273.387 181.015,273.270 181.206 C 272.983 181.670,274.009 182.493,274.415 182.126 C 274.591 181.966,274.614 182.047,274.466 182.305 C 274.158 182.841,275.513 183.716,275.988 183.287 C 276.158 183.133,276.189 183.197,276.057 183.429 C 275.761 183.951,278.001 186.738,278.618 186.614 C 278.864 186.564,279.096 186.743,279.133 187.012 C 279.169 187.280,279.221 187.676,279.248 187.891 C 279.275 188.105,279.590 188.281,279.948 188.281 C 280.306 188.281,280.490 188.390,280.356 188.524 C 280.223 188.658,280.778 189.756,281.589 190.965 C 295.397 211.535,291.157 240.658,271.359 261.229 C 268.861 263.824,270.001 264.172,272.879 261.694 C 279.332 256.137,280.655 254.913,280.557 254.590 C 280.498 254.397,280.598 254.330,280.779 254.442 C 281.173 254.686,288.524 247.620,288.369 247.146 C 288.310 246.965,288.416 246.912,288.605 247.029 C 289.067 247.314,290.712 245.530,290.336 245.153 C 290.173 244.990,290.215 244.910,290.430 244.975 C 290.847 245.101,296.161 239.739,296.159 239.192 C 296.159 239.013,296.260 238.779,296.384 238.672 C 296.508 238.564,296.468 238.740,296.294 239.063 C 295.852 239.885,296.247 239.473,300.160 235.039 C 302.018 232.934,303.432 231.040,303.302 230.830 C 303.173 230.621,303.221 230.498,303.409 230.557 C 303.884 230.706,306.294 227.904,306.418 227.059 C 306.474 226.678,306.701 226.367,306.922 226.367 C 307.493 226.367,311.742 220.667,311.484 220.249 C 311.366 220.058,311.442 219.951,311.652 220.010 C 312.617 220.281,324.981 201.308,324.425 200.408 C 324.286 200.184,324.353 200.000,324.573 200.000 C 324.793 200.000,325.172 199.627,325.416 199.172 C 325.727 198.589,325.732 198.422,325.430 198.609 C 324.731 199.040,324.934 198.622,325.962 197.514 C 330.197 192.944,337.565 171.067,339.332 157.814 C 340.796 146.830,339.357 132.965,336.806 133.491 C 336.559 133.543,336.454 133.329,336.574 133.018 C 337.402 130.860,330.681 128.227,325.781 128.790 " stroke="none" fill="#fbfcfc" fill-rule="evenodd"></path><path id="path1" d="M197.070 64.453 C 196.938 64.668,197.201 64.844,197.656 64.844 C 198.111 64.844,198.375 64.668,198.242 64.453 C 198.109 64.238,197.846 64.063,197.656 64.063 C 197.467 64.063,197.203 64.238,197.070 64.453 M187.772 133.225 C 187.646 133.707,187.731 133.972,187.985 133.888 C 188.479 133.723,188.751 132.422,188.292 132.422 C 188.121 132.422,187.887 132.783,187.772 133.225 M119.964 146.117 C 119.450 146.544,119.099 146.963,119.183 147.047 C 119.267 147.131,119.829 146.775,120.432 146.256 C 121.035 145.737,121.386 145.318,121.213 145.325 C 121.040 145.333,120.478 145.689,119.964 146.117 M110.762 155.211 C 110.116 155.683,110.108 155.757,110.687 155.980 C 111.109 156.141,111.328 156.021,111.328 155.629 C 111.328 155.277,111.513 155.147,111.779 155.311 C 112.059 155.483,112.124 155.418,111.951 155.138 C 111.605 154.579,111.628 154.577,110.762 155.211 M236.065 247.077 C 234.954 248.345,235.527 248.339,236.719 247.070 C 237.223 246.533,237.474 246.097,237.275 246.101 C 237.077 246.105,236.532 246.544,236.065 247.077 " stroke="none" fill="#f4f4f4" fill-rule="evenodd"></path><path id="path2" d="M218.359 173.841 C 217.839 174.177,217.839 174.261,218.359 174.597 C 218.737 174.841,218.992 174.841,219.076 174.597 C 219.334 173.847,218.960 173.453,218.359 173.841 M182.422 224.573 C 182.422 225.125,182.624 225.265,183.203 225.113 C 184.141 224.868,184.215 224.391,183.366 224.065 C 182.474 223.723,182.422 223.751,182.422 224.573 " stroke="none" fill="#c8c8c8" fill-rule="evenodd"></path><path id="path3" d="" stroke="none" fill="#ecfc100" fill-rule="evenodd"></path><path id="path4" d="" stroke="none" fill="#ecfc100" fill-rule="evenodd"></path></g></svg>