<svg xmlns="http://www.w3.org/2000/svg" width="24" height="24" fill="currentColor" class="bi bi-threads" viewBox="0 0 24 24">
    <path d="M9.4815 9.024c-.405-.27-1.749-1.203-1.749-1.203 1.134-1.6215 2.6295-2.253 4.698-2.253 1.4625 0 2.7045.4905 3.591 1.422.8865.9315 1.392 2.2635 1.5075 3.966q.738.3105 1.3575.726c1.6635 1.1175 2.5785 2.79 2.5785 4.7055 0 4.074-3.339 7.6125-9.384 7.6125C6.891 24 1.5 20.9805 1.5 11.991 1.5 3.051 6.723 0 12.066 0c2.469 0 8.259.3645 10.434 7.554l-2.04.5295C18.774 2.961 15.2445 2.145 12.009 2.145c-5.3475 0-8.373 3.2565-8.373 10.185 0 6.2145 3.381 9.5145 8.445 9.5145 4.1655 0 7.2705-2.1645 7.2705-5.334 0-2.157-1.812-3.1905-1.905-3.1905-.354 1.851-1.302 4.965-5.466 4.965-2.427 0-4.5195-1.677-4.5195-3.873 0-3.135 2.976-4.2705 5.325-4.2705.879 0 1.941.06 2.4945.171 0-.9555-.81-2.592-2.85-2.592-1.875 0-2.349.6075-2.9505 1.302ZM13.074 12.285c-3.06 0-3.456 1.305-3.456 2.124 0 1.317 1.5645 1.752 2.4 1.752 1.53 0 3.1005-.423 3.348-3.6345a9.3 9.3 0 0 0-2.292-.2415"/>
  </svg>